<svg width="147" height="23" viewBox="0 0 147 23" fill="none" xmlns="http://www.w3.org/2000/svg">
<path d="M0 4C0 1.79086 1.79086 0 4 0H143C145.209 0 147 1.79086 147 4V19C147 21.2091 145.209 23 143 23H4C1.79086 23 0 21.2091 0 19V4Z" fill="#E7EAEB"/>
<path d="M11.7441 13.7051L14.2578 6.46875H15.4824L12.3242 15H11.4512L11.7441 13.7051ZM9.39453 6.46875L11.8848 13.7051L12.1953 15H11.3223L8.16992 6.46875H9.39453ZM19.0437 6.46875V15H17.9129V6.46875H19.0437ZM24.609 15H22.8277L22.8395 14.0801H24.609C25.2184 14.0801 25.7262 13.9531 26.1324 13.6992C26.5387 13.4414 26.8434 13.082 27.0465 12.6211C27.2535 12.1562 27.357 11.6133 27.357 10.9922V10.4707C27.357 9.98242 27.2984 9.54883 27.1812 9.16992C27.0641 8.78711 26.8922 8.46484 26.6656 8.20312C26.4391 7.9375 26.1617 7.73633 25.8336 7.59961C25.5094 7.46289 25.1363 7.39453 24.7145 7.39453H22.7926V6.46875H24.7145C25.273 6.46875 25.7828 6.5625 26.2437 6.75C26.7047 6.93359 27.1012 7.20117 27.4332 7.55273C27.7691 7.90039 28.027 8.32227 28.2066 8.81836C28.3863 9.31055 28.4762 9.86523 28.4762 10.4824V10.9922C28.4762 11.6094 28.3863 12.166 28.2066 12.6621C28.027 13.1543 27.7672 13.5742 27.4273 13.9219C27.0914 14.2695 26.6852 14.5371 26.2086 14.7246C25.7359 14.9082 25.2027 15 24.609 15ZM23.4312 6.46875V15H22.3004V6.46875H23.4312ZM36.7953 14.0801V15H32.2777V14.0801H36.7953ZM32.5063 6.46875V15H31.3754V6.46875H32.5063ZM36.1977 10.1367V11.0566H32.2777V10.1367H36.1977ZM36.7367 6.46875V7.39453H32.2777V6.46875H36.7367ZM45.9641 10.4648V11.0039C45.9641 11.6445 45.884 12.2188 45.7238 12.7266C45.5637 13.2344 45.3332 13.666 45.0324 14.0215C44.7316 14.377 44.3703 14.6484 43.9484 14.8359C43.5305 15.0234 43.0617 15.1172 42.5422 15.1172C42.0383 15.1172 41.5754 15.0234 41.1535 14.8359C40.7355 14.6484 40.3723 14.377 40.0637 14.0215C39.759 13.666 39.5227 13.2344 39.3547 12.7266C39.1867 12.2188 39.1027 11.6445 39.1027 11.0039V10.4648C39.1027 9.82422 39.1848 9.25195 39.3488 8.74805C39.5168 8.24023 39.7531 7.80859 40.0578 7.45312C40.3625 7.09375 40.7238 6.82031 41.1418 6.63281C41.5637 6.44531 42.0266 6.35156 42.5305 6.35156C43.05 6.35156 43.5187 6.44531 43.9367 6.63281C44.3586 6.82031 44.7199 7.09375 45.0207 7.45312C45.3254 7.80859 45.5578 8.24023 45.718 8.74805C45.882 9.25195 45.9641 9.82422 45.9641 10.4648ZM44.8449 11.0039V10.4531C44.8449 9.94531 44.7922 9.49609 44.6867 9.10547C44.5852 8.71484 44.4348 8.38672 44.2355 8.12109C44.0363 7.85547 43.7922 7.6543 43.5031 7.51758C43.218 7.38086 42.8937 7.3125 42.5305 7.3125C42.1789 7.3125 41.8605 7.38086 41.5754 7.51758C41.2941 7.6543 41.052 7.85547 40.8488 8.12109C40.6496 8.38672 40.4953 8.71484 40.3859 9.10547C40.2766 9.49609 40.2219 9.94531 40.2219 10.4531V11.0039C40.2219 11.5156 40.2766 11.9688 40.3859 12.3633C40.4953 12.7539 40.6516 13.084 40.8547 13.3535C41.0617 13.6191 41.3059 13.8203 41.5871 13.957C41.8723 14.0938 42.1906 14.1621 42.5422 14.1621C42.9094 14.1621 43.2355 14.0938 43.5207 13.957C43.8059 13.8203 44.0461 13.6191 44.2414 13.3535C44.4406 13.084 44.591 12.7539 44.6926 12.3633C44.7941 11.9688 44.8449 11.5156 44.8449 11.0039ZM57.4109 14.0215L59.5789 15.7383L58.8172 16.4414L56.6844 14.748L57.4109 14.0215ZM59.5496 10.4648V11.0039C59.5496 11.6445 59.4695 12.2188 59.3094 12.7266C59.1492 13.2344 58.9188 13.666 58.618 14.0215C58.3172 14.377 57.9559 14.6484 57.534 14.8359C57.116 15.0234 56.6473 15.1172 56.1277 15.1172C55.6238 15.1172 55.1609 15.0234 54.7391 14.8359C54.3211 14.6484 53.9578 14.377 53.6492 14.0215C53.3445 13.666 53.1082 13.2344 52.9402 12.7266C52.7723 12.2188 52.6883 11.6445 52.6883 11.0039V10.4648C52.6883 9.82422 52.7703 9.25195 52.9344 8.74805C53.1023 8.24023 53.3387 7.80859 53.6434 7.45312C53.948 7.09375 54.3094 6.82031 54.7273 6.63281C55.1492 6.44531 55.6121 6.35156 56.116 6.35156C56.6355 6.35156 57.1063 6.44531 57.5281 6.63281C57.95 6.82031 58.3113 7.09375 58.6121 7.45312C58.9129 7.80859 59.1434 8.24023 59.3035 8.74805C59.4676 9.25195 59.5496 9.82422 59.5496 10.4648ZM58.4305 11.0039V10.4531C58.4305 9.94531 58.3777 9.49609 58.2723 9.10547C58.1707 8.71484 58.0203 8.38672 57.8211 8.12109C57.6219 7.85547 57.3797 7.6543 57.0945 7.51758C56.8094 7.38086 56.4832 7.3125 56.116 7.3125C55.7684 7.3125 55.452 7.38086 55.1668 7.51758C54.8855 7.6543 54.6434 7.85547 54.4402 8.12109C54.2371 8.38672 54.0809 8.71484 53.9715 9.10547C53.8621 9.49609 53.8074 9.94531 53.8074 10.4531V11.0039C53.8074 11.5156 53.8621 11.9688 53.9715 12.3633C54.0809 12.7539 54.2371 13.084 54.4402 13.3535C54.6473 13.6191 54.8934 13.8203 55.1785 13.957C55.4637 14.0938 55.7801 14.1621 56.1277 14.1621C56.4949 14.1621 56.8211 14.0938 57.1063 13.957C57.3914 13.8203 57.6316 13.6191 57.827 13.3535C58.0262 13.084 58.1766 12.7539 58.2781 12.3633C58.3797 11.9688 58.4305 11.5156 58.4305 11.0039ZM67.3766 6.46875H68.5016V12.2402C68.5016 12.8809 68.359 13.4141 68.0738 13.8398C67.7887 14.2656 67.4098 14.5859 66.9371 14.8008C66.4684 15.0117 65.9586 15.1172 65.4078 15.1172C64.8297 15.1172 64.3063 15.0117 63.8375 14.8008C63.3727 14.5859 63.0035 14.2656 62.7301 13.8398C62.4605 13.4141 62.3258 12.8809 62.3258 12.2402V6.46875H63.4449V12.2402C63.4449 12.6855 63.527 13.0527 63.691 13.3418C63.8551 13.6309 64.0836 13.8457 64.3766 13.9863C64.6734 14.127 65.0172 14.1973 65.4078 14.1973C65.8023 14.1973 66.1461 14.127 66.4391 13.9863C66.7359 13.8457 66.9664 13.6309 67.1305 13.3418C67.2945 13.0527 67.3766 12.6855 67.3766 12.2402V6.46875ZM76.8969 14.0801V15H72.3793V14.0801H76.8969ZM72.6078 6.46875V15H71.477V6.46875H72.6078ZM76.2992 10.1367V11.0566H72.3793V10.1367H76.2992ZM76.8383 6.46875V7.39453H72.3793V6.46875H76.8383ZM84.0441 12.8438C84.0441 12.6445 84.0129 12.4688 83.9504 12.3164C83.8918 12.1602 83.7863 12.0195 83.634 11.8945C83.4855 11.7695 83.2785 11.6504 83.0129 11.5371C82.7512 11.4238 82.4191 11.3086 82.0168 11.1914C81.5949 11.0664 81.2141 10.9277 80.8742 10.7754C80.5344 10.6191 80.2434 10.4414 80.0012 10.2422C79.759 10.043 79.5734 9.81445 79.4445 9.55664C79.3156 9.29883 79.2512 9.00391 79.2512 8.67188C79.2512 8.33984 79.3195 8.0332 79.4563 7.75195C79.593 7.4707 79.7883 7.22656 80.0422 7.01953C80.3 6.80859 80.6066 6.64453 80.9621 6.52734C81.3176 6.41016 81.7141 6.35156 82.1516 6.35156C82.7922 6.35156 83.3352 6.47461 83.7805 6.7207C84.2297 6.96289 84.5715 7.28125 84.8059 7.67578C85.0402 8.06641 85.1574 8.48438 85.1574 8.92969H84.0324C84.0324 8.60938 83.9641 8.32617 83.8273 8.08008C83.6906 7.83008 83.4836 7.63477 83.2063 7.49414C82.9289 7.34961 82.5773 7.27734 82.1516 7.27734C81.7492 7.27734 81.4172 7.33789 81.1555 7.45898C80.8938 7.58008 80.6984 7.74414 80.5695 7.95117C80.4445 8.1582 80.382 8.39453 80.382 8.66016C80.382 8.83984 80.4191 9.00391 80.4934 9.15234C80.5715 9.29688 80.6906 9.43164 80.8508 9.55664C81.0148 9.68164 81.2219 9.79688 81.4719 9.90234C81.7258 10.0078 82.0285 10.1094 82.3801 10.207C82.8645 10.3438 83.2824 10.4961 83.634 10.6641C83.9855 10.832 84.2746 11.0215 84.5012 11.2324C84.7316 11.4395 84.9016 11.6758 85.0109 11.9414C85.1242 12.2031 85.1809 12.5 85.1809 12.832C85.1809 13.1797 85.1105 13.4941 84.9699 13.7754C84.8293 14.0566 84.6281 14.2969 84.3664 14.4961C84.1047 14.6953 83.7902 14.8496 83.423 14.959C83.0598 15.0645 82.6535 15.1172 82.2043 15.1172C81.8098 15.1172 81.4211 15.0625 81.0383 14.9531C80.6594 14.8438 80.3137 14.6797 80.0012 14.4609C79.6926 14.2422 79.4445 13.9727 79.257 13.6523C79.0734 13.3281 78.9816 12.9531 78.9816 12.5273H80.1066C80.1066 12.8203 80.1633 13.0723 80.2766 13.2832C80.3898 13.4902 80.5441 13.6621 80.7395 13.7988C80.9387 13.9355 81.1633 14.0371 81.4133 14.1035C81.6672 14.166 81.9309 14.1973 82.2043 14.1973C82.5988 14.1973 82.9328 14.1426 83.2063 14.0332C83.4797 13.9238 83.6867 13.7676 83.8273 13.5645C83.9719 13.3613 84.0441 13.1211 84.0441 12.8438ZM90.9746 6.46875V15H89.8613V6.46875H90.9746ZM93.7168 6.46875V7.39453H87.125V6.46875H93.7168ZM97.3953 6.46875V15H96.2645V6.46875H97.3953ZM107.22 10.4648V11.0039C107.22 11.6445 107.14 12.2188 106.98 12.7266C106.82 13.2344 106.589 13.666 106.289 14.0215C105.988 14.377 105.627 14.6484 105.205 14.8359C104.787 15.0234 104.318 15.1172 103.798 15.1172C103.295 15.1172 102.832 15.0234 102.41 14.8359C101.992 14.6484 101.629 14.377 101.32 14.0215C101.015 13.666 100.779 13.2344 100.611 12.7266C100.443 12.2188 100.359 11.6445 100.359 11.0039V10.4648C100.359 9.82422 100.441 9.25195 100.605 8.74805C100.773 8.24023 101.009 7.80859 101.314 7.45312C101.619 7.09375 101.98 6.82031 102.398 6.63281C102.82 6.44531 103.283 6.35156 103.787 6.35156C104.306 6.35156 104.775 6.44531 105.193 6.63281C105.615 6.82031 105.976 7.09375 106.277 7.45312C106.582 7.80859 106.814 8.24023 106.974 8.74805C107.138 9.25195 107.22 9.82422 107.22 10.4648ZM106.101 11.0039V10.4531C106.101 9.94531 106.048 9.49609 105.943 9.10547C105.841 8.71484 105.691 8.38672 105.492 8.12109C105.293 7.85547 105.048 7.6543 104.759 7.51758C104.474 7.38086 104.15 7.3125 103.787 7.3125C103.435 7.3125 103.117 7.38086 102.832 7.51758C102.55 7.6543 102.308 7.85547 102.105 8.12109C101.906 8.38672 101.752 8.71484 101.642 9.10547C101.533 9.49609 101.478 9.94531 101.478 10.4531V11.0039C101.478 11.5156 101.533 11.9688 101.642 12.3633C101.752 12.7539 101.908 13.084 102.111 13.3535C102.318 13.6191 102.562 13.8203 102.843 13.957C103.129 14.0938 103.447 14.1621 103.798 14.1621C104.166 14.1621 104.492 14.0938 104.777 13.957C105.062 13.8203 105.302 13.6191 105.498 13.3535C105.697 13.084 105.847 12.7539 105.949 12.3633C106.05 11.9688 106.101 11.5156 106.101 11.0039ZM116.676 6.46875V15H115.539L111.245 8.41992V15H110.114V6.46875H111.245L115.557 13.0664V6.46875H116.676ZM124.427 12.8438C124.427 12.6445 124.396 12.4688 124.333 12.3164C124.275 12.1602 124.169 12.0195 124.017 11.8945C123.868 11.7695 123.661 11.6504 123.396 11.5371C123.134 11.4238 122.802 11.3086 122.4 11.1914C121.978 11.0664 121.597 10.9277 121.257 10.7754C120.917 10.6191 120.626 10.4414 120.384 10.2422C120.142 10.043 119.956 9.81445 119.827 9.55664C119.698 9.29883 119.634 9.00391 119.634 8.67188C119.634 8.33984 119.702 8.0332 119.839 7.75195C119.976 7.4707 120.171 7.22656 120.425 7.01953C120.683 6.80859 120.989 6.64453 121.345 6.52734C121.7 6.41016 122.097 6.35156 122.534 6.35156C123.175 6.35156 123.718 6.47461 124.163 6.7207C124.613 6.96289 124.954 7.28125 125.189 7.67578C125.423 8.06641 125.54 8.48438 125.54 8.92969H124.415C124.415 8.60938 124.347 8.32617 124.21 8.08008C124.073 7.83008 123.866 7.63477 123.589 7.49414C123.312 7.34961 122.96 7.27734 122.534 7.27734C122.132 7.27734 121.8 7.33789 121.538 7.45898C121.277 7.58008 121.081 7.74414 120.952 7.95117C120.827 8.1582 120.765 8.39453 120.765 8.66016C120.765 8.83984 120.802 9.00391 120.876 9.15234C120.954 9.29688 121.073 9.43164 121.234 9.55664C121.398 9.68164 121.605 9.79688 121.855 9.90234C122.109 10.0078 122.411 10.1094 122.763 10.207C123.247 10.3438 123.665 10.4961 124.017 10.6641C124.368 10.832 124.657 11.0215 124.884 11.2324C125.114 11.4395 125.284 11.6758 125.394 11.9414C125.507 12.2031 125.564 12.5 125.564 12.832C125.564 13.1797 125.493 13.4941 125.353 13.7754C125.212 14.0566 125.011 14.2969 124.749 14.4961C124.488 14.6953 124.173 14.8496 123.806 14.959C123.443 15.0645 123.036 15.1172 122.587 15.1172C122.193 15.1172 121.804 15.0625 121.421 14.9531C121.042 14.8438 120.696 14.6797 120.384 14.4609C120.075 14.2422 119.827 13.9727 119.64 13.6523C119.456 13.3281 119.364 12.9531 119.364 12.5273H120.489C120.489 12.8203 120.546 13.0723 120.659 13.2832C120.773 13.4902 120.927 13.6621 121.122 13.7988C121.321 13.9355 121.546 14.0371 121.796 14.1035C122.05 14.166 122.314 14.1973 122.587 14.1973C122.982 14.1973 123.316 14.1426 123.589 14.0332C123.863 13.9238 124.07 13.7676 124.21 13.5645C124.355 13.3613 124.427 13.1211 124.427 12.8438Z" fill="#61757E"/>
</svg>
